# xmcd
#
# Track frame offsets:
#	150
#	14740
#	29845
#	42739
#	58262
#	73115
#	88112
#	98100
#	114790
#	130867
#	144412
#	159770
#	186234
#
# Disc length: 4530 seconds
#
# Revision: 0
# Processed by: cddbd v1.4PL0 Copyright (c) Steve Scherf et al.
# Submitted via: dBpowerAMP V4.0
#
DISCID=bb11b00d
DTITLE=Coyote Dax - Necesito Country
DYEAR=2002
DGENRE=Country
TTITLE0=Te deseo
TTITLE1=Dijo Si
TTITLE2=Necesito Country
TTITLE3=Ese soy yo, extrañándote
TTITLE4=No lo haré más
TTITLE5=Pequeña amiga
TTITLE6=Corazón Soñador
TTITLE7=Blues de la nacional II
TTITLE8=chu-chu train
TTITLE9=Jukebox junkie
TTITLE10=Yo quiero vivir
TTITLE11=Te solté la rienda
TTITLE12=DATA
EXTD=
EXTT0=
EXTT1=
EXTT2=
EXTT3=
EXTT4=
EXTT5=
EXTT6=
EXTT7=
EXTT8=
EXTT9=
EXTT10=
EXTT11=
EXTT12=
PLAYORDER=
